<!-- Generator: Adobe Illustrator 18.1.1, SVG Export Plug-In  -->
<svg version="1.1"
	 xmlns="http://www.w3.org/2000/svg" xmlns:xlink="http://www.w3.org/1999/xlink" xmlns:a="http://ns.adobe.com/AdobeSVGViewerExtensions/3.0/"
	 x="0px" y="0px" width="730.78px" height="508.786px" viewBox="0 0 730.78 508.786" enable-background="new 0 0 730.78 508.786"
	 xml:space="preserve">
<defs>
</defs>
<path fill="#7B6A58" d="M639.551,184.213h21.781v165.814h-21.781V184.213z"/>
<path fill="#7B6A58" d="M407.352,184.213h21.781v165.814h-21.781V184.213z"/>
<path fill="#7B6A58" d="M187.274,299.785l79.314-115.572H99.656l-5.777,21.948l129.486-0.002l-73.546,107.362
	c45.444,2.652,81.483,40.33,81.483,86.44c0,47.829-38.774,86.603-86.603,86.603c-34.977,0-65.089-20.747-78.759-50.596
	l-14.156,20.665c19.117,31.276,53.575,52.153,92.915,52.153c60.103,0,108.825-48.723,108.825-108.825
	C253.524,354.968,226.217,316.357,187.274,299.785z"/>
<rect x="0" y="382.521" fill="#F39200" width="201.683" height="21.781"/>
<polygon fill="#006633" points="364.587,0 245.914,173.24 274.005,173.24 378.632,20.504 "/>
<polygon fill="#006633" points="372.208,49.812 456.759,173.24 483.26,173.24 385.412,30.401 "/>
<path fill="#7B6A58" d="M582.582,184.213h21.781v165.814h-21.781V184.213z"/>
<path fill="#7B6A58" d="M464.275,184.213h21.781v165.814h-21.781V184.213z"/>
<polygon fill="#7B6A58" points="604.363,350.027 490.776,184.213 464.275,184.213 577.862,350.027 "/>
<polygon fill="#006633" points="585.453,361.109 592.529,371.439 619.03,371.439 611.954,361.109 "/>
<path fill="#7B6A58" d="M366.12,203.43c-4.029-7.211-9.927-12.216-17.696-15.016c-7.769-2.801-17.852-4.201-30.251-4.201h-30.01
	v165.815h21.613v-66.893h9.966c9.626,0,17.579-0.612,23.857-1.838c6.278-1.225,11.549-3.552,15.814-6.984
	c4.263-3.43,7.455-8.392,9.573-14.885c2.119-6.493,3.179-15.078,3.179-25.754C372.163,220.722,370.148,210.641,366.12,203.43z
	 M344.258,255.122c-2.124,4.778-5.453,7.99-9.988,9.635c-4.535,1.646-10.969,2.468-19.305,2.468h-5.19v-66.263h5.819
	c8.021,0,14.299,0.963,18.833,2.888c4.535,1.925,7.838,5.242,9.91,9.95c2.071,4.708,3.107,11.333,3.107,19.874
	C347.444,243.195,346.382,250.344,344.258,255.122z"/>
<polygon fill="#006633" points="655.144,424.159 649.059,415.275 622.557,415.275 643.563,445.939 730.78,445.939 730.78,445.939 
	730.78,424.159 "/>
<g>
	<polygon fill="#F39200" points="585.987,382.521 274.577,382.521 274.577,404.302 600.908,404.302 	"/>
	<polygon fill="#F39200" points="640.783,382.521 655.741,404.302 730.78,404.302 730.78,382.521 	"/>
</g>
<polygon fill="#006633" points="634.294,432.407 590.86,369.003 615.492,366.274 652.328,419.912 "/>
</svg>